<?xml version="1.0" standalone="no"?>
<!DOCTYPE svg PUBLIC "-//W3C//DTD SVG 20010904//EN"
 "http://www.w3.org/TR/2001/REC-SVG-20010904/DTD/svg10.dtd">
<svg version="1.0" xmlns="http://www.w3.org/2000/svg"
 width="512.000000pt" height="512.000000pt" viewBox="0 0 512.000000 512.000000"
 preserveAspectRatio="xMidYMid meet">

<g transform="translate(0.000000,512.000000) scale(0.100000,-0.100000)"
fill="#000000" stroke="none">
<path d="M386 5029 c-62 -15 -153 -68 -197 -116 -22 -24 -55 -74 -72 -111
l-32 -67 0 -1576 0 -1575 37 -76 c45 -91 103 -147 196 -191 l67 -32 797 -3
797 -3 26 -43 c51 -88 68 -153 69 -271 1 -90 -3 -122 -22 -177 l-23 -66 -222
-4 -222 -3 -67 -32 c-93 -44 -151 -100 -196 -191 -36 -75 -37 -77 -41 -218 -3
-142 -3 -143 22 -168 l26 -26 1231 0 1231 0 26 26 c25 25 25 26 22 168 -4 141
-5 143 -41 218 -45 91 -103 147 -196 191 l-67 32 -222 3 -222 4 -23 66 c-19
55 -23 87 -22 177 1 118 18 183 69 271 l26 43 797 3 798 3 76 37 c91 45 147
103 191 196 l32 67 0 1575 0 1575 -32 67 c-44 93 -100 151 -191 196 l-76 37
-2155 2 c-1279 0 -2172 -3 -2195 -8z m4328 -161 c55 -16 138 -99 154 -154 9
-31 12 -315 12 -1178 l0 -1136 -80 0 -80 0 -2 1109 c-3 1103 -3 1110 -24 1137
-11 15 -33 37 -48 48 l-27 21 -2059 0 -2059 0 -27 -21 c-15 -11 -37 -33 -48
-48 -21 -27 -21 -34 -24 -1137 l-2 -1109 -80 0 -80 0 0 1136 c0 863 3 1147 12
1178 15 51 99 137 148 153 53 17 4257 18 4314 1z m-154 -708 l0 -400 -308 0
-307 0 -23 43 c-56 106 -175 204 -302 248 -93 33 -248 33 -342 1 -116 -40
-223 -124 -292 -227 -31 -47 -33 -84 -7 -116 18 -22 28 -24 149 -29 141 -5
160 -12 206 -74 29 -39 29 -133 0 -172 -46 -62 -65 -69 -206 -74 -121 -5 -131
-7 -149 -29 -26 -32 -24 -69 7 -116 68 -103 176 -187 292 -227 55 -19 87 -23
177 -22 95 0 120 4 179 27 123 48 246 155 294 255 l16 32 308 0 308 0 0 -440
0 -440 -2000 0 -2000 0 0 1080 0 1080 2000 0 2000 0 0 -400z m-968 -269 c82
-31 157 -104 204 -196 23 -44 48 -78 62 -84 15 -7 146 -11 362 -11 l340 0 0
-80 0 -80 -347 0 c-258 -1 -352 -4 -364 -13 -8 -7 -33 -45 -54 -85 -46 -88
-124 -162 -205 -194 -42 -17 -76 -22 -145 -23 -83 0 -96 3 -160 35 l-70 34 35
9 c59 14 159 68 186 100 14 16 37 53 52 81 22 43 26 64 26 136 0 72 -4 93 -26
136 -15 28 -38 64 -52 81 -29 35 -112 82 -174 97 l-44 12 49 27 c28 15 68 31
89 36 60 15 172 6 236 -18z m1288 -1947 c0 -204 -4 -310 -12 -338 -16 -55 -99
-138 -154 -154 -60 -18 -4248 -18 -4308 0 -55 16 -138 99 -154 154 -8 28 -12
134 -12 338 l0 296 2320 0 2320 0 0 -296z m-1930 -669 c0 -2 -9 -28 -21 -57
-28 -70 -49 -185 -49 -261 0 -54 18 -163 35 -218 6 -18 -7 -19 -355 -19 -348
0 -361 1 -355 19 17 55 35 164 35 218 0 76 -21 191 -49 261 -12 29 -21 55 -21
57 0 3 176 5 390 5 215 0 390 -2 390 -5z m564 -727 c55 -16 138 -99 154 -154
7 -23 12 -67 12 -98 l0 -56 -1120 0 -1120 0 0 56 c0 31 5 75 12 98 15 51 99
137 148 153 53 16 1858 17 1914 1z"/>
<path d="M1705 4375 c-22 -21 -25 -33 -25 -94 0 -69 -1 -71 -31 -86 l-31 -17
-73 71 c-108 105 -105 105 -282 -72 -177 -177 -177 -174 -72 -282 l71 -73 -17
-31 c-15 -30 -17 -31 -86 -31 -61 0 -73 -3 -94 -25 -25 -24 -25 -26 -25 -215
0 -189 0 -191 25 -215 21 -22 33 -25 94 -25 69 0 71 -1 86 -31 l17 -31 -71
-73 c-105 -108 -105 -105 72 -282 177 -177 174 -177 282 -72 l73 71 31 -17
c30 -15 31 -17 31 -86 0 -61 3 -73 25 -94 24 -25 26 -25 215 -25 189 0 191 0
215 25 22 21 25 33 25 94 0 69 1 71 31 86 l31 17 73 -71 c108 -105 105 -105
282 72 177 177 177 174 72 282 l-71 73 17 31 c15 30 17 31 86 31 61 0 73 3 94
25 25 24 25 26 25 215 0 189 0 191 -25 215 -21 22 -33 25 -94 25 -69 0 -71 1
-86 31 l-17 31 71 73 c105 108 105 105 -72 282 -177 177 -174 177 -282 72
l-73 -71 -31 17 c-30 15 -31 17 -31 86 0 61 -3 73 -25 94 -24 25 -26 25 -215
25 -189 0 -191 0 -215 -25z m295 -186 c0 -28 5 -59 10 -70 13 -24 201 -119
236 -119 18 0 45 18 90 62 l65 62 61 -62 62 -61 -62 -65 c-44 -45 -62 -72 -62
-90 0 -35 95 -223 119 -236 11 -5 42 -10 70 -10 l51 0 0 -80 0 -80 -51 0 c-28
0 -59 -5 -70 -10 -24 -13 -119 -201 -119 -236 0 -18 18 -45 62 -90 l62 -65
-62 -61 -61 -62 -65 62 c-45 44 -72 62 -90 62 -35 0 -223 -95 -236 -119 -5
-11 -10 -42 -10 -70 l0 -51 -80 0 -80 0 0 51 c0 28 -5 59 -10 70 -13 24 -201
119 -236 119 -18 0 -45 -18 -90 -62 l-65 -62 -61 62 -62 61 62 65 c44 45 62
72 62 90 0 35 -95 223 -119 236 -11 5 -42 10 -70 10 l-51 0 0 80 0 80 51 0
c28 0 59 5 70 10 24 13 119 201 119 236 0 18 -18 45 -62 90 l-62 65 62 61 61
62 65 -62 c45 -44 72 -62 90 -62 35 0 223 95 236 119 5 11 10 42 10 70 l0 51
80 0 80 0 0 -51z"/>
<path d="M1826 3910 c-63 -16 -153 -70 -197 -117 -22 -24 -55 -74 -72 -111
-29 -61 -32 -76 -32 -163 0 -90 2 -99 37 -171 45 -91 103 -147 196 -191 61
-29 76 -32 162 -32 86 0 101 3 162 32 93 44 151 100 196 191 35 72 37 81 37
172 0 91 -2 100 -37 172 -68 136 -188 217 -336 224 -42 2 -94 -1 -116 -6z
m168 -162 c55 -16 138 -99 154 -154 28 -94 8 -169 -63 -239 -51 -52 -102 -75
-165 -75 -124 0 -240 116 -240 240 0 63 23 114 75 165 70 71 145 90 239 63z"/>
<path d="M2480 2067 c-49 -16 -133 -102 -148 -153 -28 -94 -8 -169 63 -239
101 -102 229 -102 330 0 98 97 101 222 8 325 -65 72 -158 97 -253 67z m135
-172 c50 -49 15 -135 -55 -135 -19 0 -40 9 -55 25 -16 15 -25 36 -25 55 0 19
9 40 25 55 15 16 36 25 55 25 19 0 40 -9 55 -25z"/>
</g>
</svg>
